<svg id="eszwgwe9x3yq1" xmlns="http://www.w3.org/2000/svg" xmlns:xlink="http://www.w3.org/1999/xlink" viewBox="0 0 120 120" shape-rendering="geometricPrecision" text-rendering="geometricPrecision"><style><![CDATA[#eszwgwe9x3yq2_tr {animation: eszwgwe9x3yq2_tr__tr 1500ms linear infinite normal forwards}@keyframes eszwgwe9x3yq2_tr__tr { 0% {transform: translate(60px,60px) rotate(226.011971deg)} 13.333333% {transform: translate(60px,60px) rotate(226.011971deg);animation-timing-function: cubic-bezier(0.770000,0,0.175000,1)} 86.666667% {transform: translate(60px,60px) rotate(586deg)} 100% {transform: translate(60px,60px) rotate(586deg)} }#eszwgwe9x3yq3_to {animation: eszwgwe9x3yq3_to__to 1500ms linear infinite normal forwards}@keyframes eszwgwe9x3yq3_to__to { 0% {transform: translate(448.052560px,349.843230px)} 13.333333% {transform: translate(448.052560px,349.843230px);animation-timing-function: cubic-bezier(0.645000,0.045000,0.355000,1)} 53.333333% {transform: translate(473.608252px,350.754636px);animation-timing-function: cubic-bezier(0.645000,0.045000,0.355000,1)} 86.666667% {transform: translate(448.052560px,349.843230px)} 100% {transform: translate(448.052560px,349.843230px)} }#eszwgwe9x3yq5_to {animation: eszwgwe9x3yq5_to__to 1500ms linear infinite normal forwards}@keyframes eszwgwe9x3yq5_to__to { 0% {transform: translate(406.611749px,324.004278px)} 13.333333% {transform: translate(406.611749px,324.004278px);animation-timing-function: cubic-bezier(0.645000,0.045000,0.355000,1)} 53.333333% {transform: translate(383.096106px,322.219938px);animation-timing-function: cubic-bezier(0.645000,0.045000,0.355000,1)} 86.666667% {transform: translate(406.611749px,324.004278px)} 100% {transform: translate(406.611749px,324.004278px)} }]]></style><g id="eszwgwe9x3yq2_tr" transform="translate(60,60) rotate(226.011971)"><g id="eszwgwe9x3yq2" transform="scale(-0.695141,0.695141) translate(-420.617004,-324.000488)"><g id="eszwgwe9x3yq3_to" transform="translate(448.052560,349.843230)"><g id="eszwgwe9x3yq3" transform="translate(16.504440,16.474770)"><path id="eszwgwe9x3yq4" d="M0,0C-9.118000,9.118000,-23.901000,9.118000,-33.019000,0C-33.514000,-0.495000,-33.987000,-1.012000,-34.436000,-1.548000C-37.823000,-5.597000,-39.658000,-10.651000,-39.842000,-15.908000C-39.859000,-16.374000,-39.831000,-16.839000,-39.823000,-17.304000C-38.917000,-15.574000,-37.742000,-13.931000,-36.271000,-12.460000C-29.090000,-5.279000,-17.945000,-4.783000,-11.376000,-11.352000C-4.808000,-17.920000,-5.304000,-29.066000,-12.484000,-36.247000C-13.946000,-37.708000,-15.577000,-38.878000,-17.295000,-39.782000C-15.536000,-39.816000,-13.770000,-39.711000,-11.986000,-39.351000C-7.484000,-38.441000,-3.256000,-36.275000,0,-33.019000C9.118000,-23.901000,9.118000,-9.118000,0,0" fill="rgb(16,180,234)" stroke="none" stroke-width="1"/></g></g><g id="eszwgwe9x3yq5_to" transform="translate(406.611749,324.004278)"><g id="eszwgwe9x3yq5" transform="translate(-1.165749,-27.401278)"><path id="eszwgwe9x3yq6" d="M0,0C-9.053000,9.054000,-9.053000,23.730000,0,32.784000C3.527000,36.311000,7.911000,38.444000,12.480000,39.223000L12.311000,39.223000C12.255000,39.522000,6.100000,72.479000,37.939000,79.774000C37.939000,79.774000,5.504000,81.266000,5.504000,40.059000C2.472000,40.458000,-0.571000,40.753000,-3.631000,40.646000C-11.021000,40.386000,-18.125000,37.807000,-23.816000,33.046000C-24.571000,32.415000,-25.298000,31.750000,-25.994000,31.054000C-38.812000,18.236000,-38.812000,-2.546000,-25.994000,-15.364000C-13.176000,-28.183000,7.606000,-28.183000,20.424000,-15.364000C23.708000,-12.081000,26.187000,-8.089000,27.808000,-3.762000C18.964000,-8.775000,7.538000,-7.537000,0,0" fill="rgb(16,180,234)" stroke="none" stroke-width="1"/></g></g><g id="eszwgwe9x3yq7" transform="matrix(1 0 0 1 442.74900000000002 372.53899999999999)"><path id="eszwgwe9x3yq8" d="M0,0C0,0,-26.926000,0.377000,-18.943000,-45.908000C-11.998000,-86.185000,-26.397000,-100.191000,-41.930000,-100.896000C-41.375000,-100.773000,-0.546000,-104.755000,-5.830000,-50.651000C-10.163000,-6.292000,-10.548000,-5.958000,0,0" fill="rgb(0,97,151)" fill-rule="evenodd" stroke="none" stroke-width="1"/></g></g></g></svg>